<svg width="51" height="51" viewBox="0 0 51 51" fill="none" xmlns="http://www.w3.org/2000/svg">
<path d="M17.6657 17.6665H1.99902V33.3332H17.6657V17.6665Z" stroke="black" stroke-width="3" stroke-linejoin="round"/>
<path d="M33.3337 17.6665H17.667V33.3332H33.3337V17.6665Z" stroke="black" stroke-width="3" stroke-linejoin="round"/>
<path d="M48.9987 17.6665H33.332V33.3332H48.9987V17.6665Z" stroke="black" stroke-width="3" stroke-linejoin="round"/>
<path d="M33.3337 1.99951H17.667V17.6662H33.3337V1.99951Z" stroke="black" stroke-width="3" stroke-linejoin="round"/>
<path d="M33.332 1.99951H47.2493C48.2154 1.99951 48.9987 2.78285 48.9987 3.74896V17.6662H33.332V1.99951Z" stroke="black" stroke-width="3" stroke-linejoin="round"/>
<path d="M1.99902 33.333H17.6657V48.9997H3.74847C2.78236 48.9997 1.99902 48.2163 1.99902 47.2502V33.333Z" stroke="black" stroke-width="3" stroke-linejoin="round"/>
<path d="M33.3337 33.333H17.667V48.9997H33.3337V33.333Z" stroke="black" stroke-width="3" stroke-linejoin="round"/>
<path d="M33.332 33.333H48.9987V47.2502C48.9987 48.2163 48.2154 48.9997 47.2493 48.9997H33.332V33.333Z" stroke="black" stroke-width="3" stroke-linejoin="round"/>
<path d="M3.88505 1.99951H17.6657V17.6662H1.99902V3.88554C1.99902 2.84511 2.84462 1.99951 3.88505 1.99951Z" stroke="black" stroke-width="3" stroke-linejoin="round"/>
<path d="M9.77344 6.28394V13.5147" stroke="black" stroke-width="3" stroke-linecap="round" stroke-linejoin="round"/>
<path d="M9.77344 37.7019V44.9327" stroke="black" stroke-width="3" stroke-linecap="round" stroke-linejoin="round"/>
<path d="M25.835 6.28394V13.5147" stroke="black" stroke-width="3" stroke-linecap="round" stroke-linejoin="round"/>
<path d="M25.835 22.1277V29.3585" stroke="black" stroke-width="3" stroke-linecap="round" stroke-linejoin="round"/>
<path d="M41.6787 37.6877V44.9185" stroke="black" stroke-width="3" stroke-linecap="round" stroke-linejoin="round"/>
</svg>
